<?xml version="1.0" standalone="no"?>
<!DOCTYPE svg PUBLIC "-//W3C//DTD SVG 20010904//EN"
 "http://www.w3.org/TR/2001/REC-SVG-20010904/DTD/svg10.dtd">
<svg version="1.0" xmlns="http://www.w3.org/2000/svg"
 width="700.000000pt" height="700.000000pt" viewBox="0 0 700.000000 700.000000"
 preserveAspectRatio="xMidYMid meet">
<metadata>
Created by potrace 1.11, written by Peter Selinger 2001-2013
</metadata>
<g transform="translate(0.000000,700.000000) scale(0.100000,-0.100000)"
fill="#000000" stroke="none">
<path d="M2259 6483 c-5 -101 -2 -5976 3 -5979 5 -3 716 -6 1156 -4 l82 0 0
2380 0 2380 365 0 364 0 516 -515 515 -516 0 -729 0 -729 -515 -515 -515 -516
-305 0 c-237 0 -305 -3 -306 -12 -6 -67 -2 -1221 4 -1225 4 -2 258 -4 564 -4
l558 1 878 878 878 878 0 1244 0 1244 -878 878 -878 878 -1242 0 c-1177 0
-1243 -1 -1244 -17z"/>
<path d="M1318 5563 l-818 -818 0 -1245 0 -1245 820 -820 820 -820 0 878 0
878 -200 200 -200 199 0 730 0 729 200 200 200 200 -2 876 -3 875 -817 -817z"/>
</g>
</svg>
